<?xml version="1.0" encoding="utf-8"?>
<!-- Generator: Adobe Illustrator 16.0.0, SVG Export Plug-In . SVG Version: 6.00 Build 0)  -->
<!DOCTYPE svg PUBLIC "-//W3C//DTD SVG 1.1//EN" "http://www.w3.org/Graphics/SVG/1.1/DTD/svg11.dtd">
<svg version="1.1" id="Layer_1" xmlns="http://www.w3.org/2000/svg" xmlns:xlink="http://www.w3.org/1999/xlink" x="0px" y="0px"
	 width="70px" height="70px" viewBox="0 0 70 70" enable-background="new 0 0 70 70" xml:space="preserve">
<g>
	<circle fill="#FFFFFF" cx="35" cy="35.001" r="35"/>
	<polygon fill="#F58220" points="28.97,15.163 32.234,19.458 38.385,11.231 44.363,11.231 38.66,19.458 44.363,28.047 
		38.557,28.047 35.36,23.855 32.097,28.047 25.636,19.714 	"/>
	<g>
		<path fill="#F48220" d="M7.618,40.383l-0.773,0.849v2.063H4.959v-7.82h1.885v3.448L7.5,37.929l1.687-2.455h2.331l-2.643,3.459
			l2.643,4.361H9.283L7.618,40.383z"/>
		<path fill="#F48220" d="M13.88,41.844h3.282v1.45h-5.167v-7.82h1.885V41.844z"/>
		<path fill="#F48220" d="M19.966,43.294h-1.88v-7.82h1.88V43.294z"/>
		<path fill="#F48220" d="M27.604,40.646c-0.025,0.545-0.172,1.025-0.44,1.442s-0.646,0.74-1.13,0.97
			c-0.485,0.229-1.04,0.344-1.663,0.344c-1.028,0-1.837-0.335-2.428-1.004c-0.591-0.67-0.886-1.615-0.886-2.836v-0.387
			c0-0.767,0.133-1.438,0.4-2.012c0.267-0.575,0.65-1.019,1.152-1.332s1.082-0.471,1.74-0.471c0.949,0,1.711,0.25,2.288,0.75
			c0.577,0.499,0.904,1.188,0.983,2.064h-1.88c-0.014-0.476-0.134-0.817-0.36-1.025s-0.569-0.312-1.031-0.312
			c-0.469,0-0.813,0.176-1.031,0.526s-0.333,0.911-0.344,1.682v0.553c0,0.834,0.105,1.431,0.314,1.789
			c0.21,0.357,0.57,0.537,1.083,0.537c0.433,0,0.765-0.103,0.994-0.307s0.351-0.528,0.365-0.973H27.604z"/>
		<path fill="#F48220" d="M31.154,40.383l-0.773,0.849v2.063h-1.885v-7.82h1.885v3.448l0.655-0.993l1.687-2.455h2.331l-2.643,3.459
			l2.643,4.361h-2.234L31.154,40.383z"/>
		<path fill="#183E6D" d="M44.893,39.545c0,0.763-0.141,1.438-0.424,2.024c-0.283,0.588-0.686,1.04-1.205,1.356
			c-0.521,0.317-1.115,0.476-1.781,0.476s-1.257-0.153-1.772-0.459c-0.516-0.307-0.917-0.744-1.206-1.313
			c-0.288-0.569-0.439-1.223-0.453-1.96v-0.441c0-0.766,0.141-1.441,0.422-2.027c0.28-0.585,0.684-1.037,1.207-1.355
			c0.525-0.319,1.123-0.479,1.792-0.479c0.663,0,1.253,0.157,1.772,0.473s0.923,0.764,1.211,1.346c0.289,0.582,0.435,1.248,0.438,2
			V39.545z M42.976,39.218c0-0.777-0.13-1.367-0.39-1.771c-0.26-0.402-0.631-0.604-1.114-0.604c-0.945,0-1.444,0.709-1.499,2.127
			l-0.005,0.575c0,0.767,0.127,1.355,0.382,1.767c0.254,0.412,0.631,0.618,1.133,0.618c0.477,0,0.844-0.202,1.102-0.606
			c0.258-0.405,0.389-0.987,0.392-1.746V39.218z"/>
		<path fill="#183E6D" d="M52.396,43.294h-1.875l-2.771-4.866v4.866h-1.885v-7.82h1.885l2.767,4.866v-4.866h1.88V43.294z"/>
		<path fill="#183E6D" d="M58.337,43.294h-1.88v-7.82h1.88V43.294z"/>
		<path fill="#183E6D" d="M65.631,36.929h-2.348v6.365h-1.885v-6.365h-2.305v-1.455h6.537V36.929z"/>
	</g>
	<g>
		<path fill="#676767" d="M30.756,50.006v6.049c0,0.686-0.146,1.279-0.438,1.781s-0.711,0.883-1.257,1.146
			c-0.546,0.262-1.191,0.393-1.936,0.393c-1.125,0-2.012-0.291-2.66-0.875s-0.978-1.385-0.99-2.4v-6.094h2.241v6.139
			c0.025,1.012,0.495,1.518,1.409,1.518c0.461,0,0.811-0.127,1.047-0.381s0.355-0.668,0.355-1.238v-6.037H30.756z"/>
		<path fill="#676767" d="M37.256,57.521h-3.053l-0.533,1.727h-2.38l3.39-9.242h2.094l3.416,9.242h-2.394L37.256,57.521z
			 M34.736,55.801h1.986l-0.996-3.205L34.736,55.801z"/>
		<path fill="#676767" d="M43.09,57.535h3.879v1.713h-6.107v-9.242h2.229V57.535z"/>
	</g>
</g>
</svg>
