<?xml version="1.0" encoding="utf-8"?>
<!-- Generator: Adobe Illustrator 16.0.0, SVG Export Plug-In . SVG Version: 6.00 Build 0)  -->
<!DOCTYPE svg PUBLIC "-//W3C//DTD SVG 1.1//EN" "http://www.w3.org/Graphics/SVG/1.1/DTD/svg11.dtd">
<svg version="1.1" id="Layer_1" xmlns="http://www.w3.org/2000/svg" xmlns:xlink="http://www.w3.org/1999/xlink" x="0px" y="0px"
	 width="70px" height="70px" viewBox="0 0 70 70" enable-background="new 0 0 70 70" xml:space="preserve">
<g>
	<circle fill="#FFFFFF" cx="35" cy="35.001" r="35"/>
	<polygon fill="#F58220" points="28.97,15.163 32.234,19.458 38.385,11.231 44.363,11.231 38.66,19.458 44.363,28.047 
		38.557,28.047 35.36,23.855 32.097,28.047 25.636,19.714 	"/>
	<g>
		<path fill="#F48220" d="M7.618,40.383l-0.773,0.849v2.063H4.959v-7.82h1.885v3.448L7.5,37.929l1.687-2.455h2.331l-2.643,3.459
			l2.643,4.361H9.283L7.618,40.383z"/>
		<path fill="#F48220" d="M13.88,41.844h3.282v1.45h-5.167v-7.82h1.885V41.844z"/>
		<path fill="#F48220" d="M19.966,43.294h-1.88v-7.82h1.88V43.294z"/>
		<path fill="#F48220" d="M27.604,40.646c-0.025,0.545-0.172,1.025-0.44,1.442s-0.646,0.74-1.13,0.97
			c-0.485,0.229-1.04,0.344-1.663,0.344c-1.028,0-1.837-0.335-2.428-1.004c-0.591-0.67-0.886-1.615-0.886-2.836v-0.387
			c0-0.767,0.133-1.438,0.4-2.012c0.267-0.575,0.65-1.019,1.152-1.332s1.082-0.471,1.74-0.471c0.949,0,1.711,0.25,2.288,0.75
			c0.577,0.499,0.904,1.188,0.983,2.064h-1.88c-0.014-0.476-0.134-0.817-0.36-1.025s-0.569-0.312-1.031-0.312
			c-0.469,0-0.813,0.176-1.031,0.526s-0.333,0.911-0.344,1.682v0.553c0,0.834,0.105,1.431,0.314,1.789
			c0.21,0.357,0.57,0.537,1.083,0.537c0.433,0,0.765-0.103,0.994-0.307s0.351-0.528,0.365-0.973H27.604z"/>
		<path fill="#F48220" d="M31.154,40.383l-0.773,0.849v2.063h-1.885v-7.82h1.885v3.448l0.655-0.993l1.687-2.455h2.331l-2.643,3.459
			l2.643,4.361h-2.234L31.154,40.383z"/>
		<path fill="#183E6D" d="M44.893,39.545c0,0.763-0.141,1.438-0.424,2.024c-0.283,0.588-0.686,1.04-1.205,1.356
			c-0.521,0.317-1.115,0.476-1.781,0.476s-1.257-0.153-1.772-0.459c-0.516-0.307-0.917-0.744-1.206-1.313
			c-0.288-0.569-0.439-1.223-0.453-1.96v-0.441c0-0.766,0.141-1.441,0.422-2.027c0.28-0.585,0.684-1.037,1.207-1.355
			c0.525-0.319,1.123-0.479,1.792-0.479c0.663,0,1.253,0.157,1.772,0.473s0.923,0.764,1.211,1.346c0.289,0.582,0.435,1.248,0.438,2
			V39.545z M42.976,39.218c0-0.777-0.13-1.367-0.39-1.771c-0.26-0.402-0.631-0.604-1.114-0.604c-0.945,0-1.444,0.709-1.499,2.127
			l-0.005,0.575c0,0.767,0.127,1.355,0.382,1.767c0.254,0.412,0.631,0.618,1.133,0.618c0.477,0,0.844-0.202,1.102-0.606
			c0.258-0.405,0.389-0.987,0.392-1.746V39.218z"/>
		<path fill="#183E6D" d="M52.396,43.294h-1.875l-2.771-4.866v4.866h-1.885v-7.82h1.885l2.767,4.866v-4.866h1.88V43.294z"/>
		<path fill="#183E6D" d="M58.337,43.294h-1.88v-7.82h1.88V43.294z"/>
		<path fill="#183E6D" d="M65.631,36.929h-2.348v6.365h-1.885v-6.365h-2.305v-1.455h6.537V36.929z"/>
	</g>
	<g>
		<path fill="#676767" d="M28.748,55.801l1.06-5.795h2.209l-1.961,9.242h-2.311l-1.238-5.268l-1.212,5.268H22.99l-1.968-9.242h2.215
			l1.06,5.795l1.27-5.795h1.892L28.748,55.801z"/>
		<path fill="#676767" d="M35.114,56.113v3.135h-2.228v-9.242h3.688c0.707,0,1.332,0.131,1.875,0.391
			c0.545,0.26,0.965,0.631,1.264,1.111s0.447,1.025,0.447,1.635c0,0.9-0.322,1.621-0.967,2.16c-0.646,0.541-1.531,0.811-2.657,0.811
			H35.114z M35.114,54.393h1.46c0.432,0,0.761-0.107,0.986-0.324c0.227-0.215,0.34-0.52,0.34-0.914c0-0.432-0.115-0.775-0.349-1.035
			c-0.233-0.258-0.55-0.389-0.952-0.393h-1.485V54.393z"/>
		<path fill="#676767" d="M44.783,55.979h-1.207v3.27h-2.229v-9.242h3.639c1.096,0,1.951,0.244,2.57,0.73
			c0.617,0.486,0.926,1.172,0.926,2.061c0,0.643-0.129,1.174-0.391,1.598c-0.26,0.422-0.666,0.766-1.221,1.027l1.93,3.73v0.096
			h-2.387L44.783,55.979z M43.576,54.266h1.41c0.422,0,0.74-0.111,0.955-0.334c0.213-0.223,0.32-0.533,0.32-0.932
			c0-0.4-0.107-0.713-0.324-0.939c-0.215-0.227-0.533-0.34-0.951-0.34h-1.41V54.266z"/>
	</g>
</g>
</svg>
